<?xml version="1.0" encoding="utf-8"?>
<!-- Svg Vector Icons : http://www.onlinewebfonts.com/icon -->
<!DOCTYPE svg PUBLIC "-//W3C//DTD SVG 1.1//EN" "http://www.w3.org/Graphics/SVG/1.1/DTD/svg11.dtd">
<svg version="1.1" xmlns="http://www.w3.org/2000/svg" xmlns:xlink="http://www.w3.org/1999/xlink" x="0px" y="0px" viewBox="0 0 1000 1000" enable-background="new 0 0 1000 1000" xml:space="preserve">
<metadata> Svg Vector Icons : http://www.onlinewebfonts.com/icon </metadata>
<g><g><g><path d="M300.7,990c59.6,0,115.6-23.2,157.8-65.4c0.6-0.6,8.8-11.6,9.4-12.4L898,329.7c4.6-6.2,4.7-14.6,0.4-21c-4.3-6.4-12.2-9.3-19.7-7.4l-134,35.5L919.8,37.3c4.5-7.7,2.8-17.5-4.1-23.1c-6.8-5.7-16.8-5.6-23.5,0.2L524.1,332.8l25-66.3c3-7.9,0.1-16.9-7-21.6s-16.5-3.8-22.6,2.1L142.9,609.1c-87,87-87,228.6,0,315.6C185.1,966.8,241.1,990,300.7,990z M300.7,595.2c94.7,0,171.7,77,171.7,171.7c0,94.7-77,171.7-171.7,171.7c-94.7,0-171.7-77-171.7-171.7C129,672.2,206,595.2,300.7,595.2z"/><path d="M197.4,746.7c0-7.2,1-14.2,2.7-20.9c7.6-30.2,31.4-53.9,61.6-61.6c6.7-1.7,13.7-2.7,20.9-2.7c10,0,18.2-8.1,18.2-18.2c0-10-8.1-18.2-18.2-18.2c-67,0-121.5,54.5-121.5,121.5c0,10,8.1,18.2,18.2,18.2C189.3,764.9,197.4,756.8,197.4,746.7z"/></g></g><g></g><g></g><g></g><g></g><g></g><g></g><g></g><g></g><g></g><g></g><g></g><g></g><g></g><g></g><g></g></g>
</svg>